# xmcd CD database file
#
# Track frame offsets:
#	150
#	22750
#	51392
#	68473
#	87268
#	110210
#	134187
#	151652
#	172822
#	205636
#	232835
#	271079
#	299082
#	311433
#
# Disc length: 4710 seconds
#
# Revision: 0
# Processed by: cddbd v1.5.2PL0 Copyright (c) Steve Scherf et al.
# Submitted via: CDex 1.70beta2
#
DISCID=b912640e
DTITLE=King Crimson - The Compact King Crimson
DYEAR=1995
DGENRE=Jazz
TTITLE0=Discipline
TTITLE1=Thela Hun Ginjeet
TTITLE2=Matte Kudasai
TTITLE3=Three of A Perfect Pair
TTITLE4=Frame By Frame
TTITLE5=Sleepless
TTITLE6=Heartbeat
TTITLE7=Elephant Talk
TTITLE8=21st Century Schizoid Man
TTITLE9=I Talk To The Wind
TTITLE10=Epitaph
TTITLE11=red
TTITLE12=Cat Food
TTITLE13=Court Of the Crimson King
EXTD=YEAR: 1995
EXTT0=
EXTT1=
EXTT2=
EXTT3=
EXTT4=
EXTT5=
EXTT6=
EXTT7=
EXTT8=
EXTT9=
EXTT10=
EXTT11=
EXTT12=
EXTT13=
PLAYORDER=
